<?xml version="1.0" standalone="no"?><!DOCTYPE svg PUBLIC "-//W3C//DTD SVG 1.1//EN" "http://www.w3.org/Graphics/SVG/1.1/DTD/svg11.dtd"><svg t="1686301858365" class="icon" viewBox="0 0 1024 1024" version="1.1" xmlns="http://www.w3.org/2000/svg" p-id="25646" xmlns:xlink="http://www.w3.org/1999/xlink" width="256" height="256"><path d="M529.066667 384c-234.666667 0-422.4 183.466667-430.933334 413.866667h861.866667C951.466667 567.466667 759.466667 384 529.066667 384z m-162.133334 285.866667c-25.6 0-46.933333-21.333333-46.933333-46.933334 0-25.6 21.333333-46.933333 46.933333-46.933333 25.6 0 46.933333 21.333333 46.933334 46.933333 0 25.6-21.333333 46.933333-46.933334 46.933334z m320 0c-25.6 0-46.933333-21.333333-46.933333-46.933334 0-25.6 21.333333-46.933333 46.933333-46.933333s46.933333 21.333333 46.933334 46.933333c0 25.6-21.333333 46.933333-46.933334 46.933334z" fill="#e6e6e6" p-id="25647"></path><path d="M177.92 297.6l24.874667-16.554667 127.786666 191.701334-24.832 16.554666zM836.266667 290.133333l-132.266667 204.8 25.6 17.066667 136.533333-204.8z" fill="#e6e6e6" p-id="25648"></path></svg>